<?xml version="1.0" encoding="utf-8"?>
<!-- Generator: Adobe Illustrator 16.0.0, SVG Export Plug-In . SVG Version: 6.00 Build 0)  -->
<!DOCTYPE svg PUBLIC "-//W3C//DTD SVG 1.1//EN" "http://www.w3.org/Graphics/SVG/1.1/DTD/svg11.dtd">
<svg version="1.1" id="Capa_1" xmlns="http://www.w3.org/2000/svg" xmlns:xlink="http://www.w3.org/1999/xlink" x="0px" y="0px"
	 width="250px" height="76px" viewBox="0 0 250 76" enable-background="new 0 0 250 76" xml:space="preserve">
<g>
	<g>
		<path d="M99.651,35.157c-0.046-0.725-0.125-1.441-0.127-2.157c-0.002-5.811,0.008-11.624,0.017-17.434
			c0-0.371-0.03-0.744-0.001-1.111c0.066-0.862,0.506-1.373,1.41-1.397c0.432-0.012,0.866-0.012,1.299-0.01
			c10.27,0.025,20.541,0.051,30.81,0.08c3.17,0.009,2.9,0.042,3.006,3.386c0.026,0.885-0.482,1.368-1.401,1.349
			c-0.739-0.015-1.479-0.045-2.224-0.051c-7.857-0.044-15.716-0.089-23.572-0.125c-2.688-0.012-3.119,0.479-2.829,3.181
			c0.046,0.417,0.175,0.822,0.284,1.325c0.535,0.06,1.015,0.158,1.494,0.155c6.496-0.042,12.991-0.085,19.484-0.155
			c1.794-0.019,3.584-0.13,5.378-0.183c0.614-0.019,1.246-0.055,1.85,0.037c1.179,0.179,1.509,0.57,1.449,1.722
			c-0.047,0.848-0.211,1.688-0.346,2.718c-0.805,0-1.474,0-2.145,0c-7.606,0.014-15.219,0.035-22.828,0.032
			c-1.108,0-2.22-0.142-3.334-0.174c-1.012-0.027-1.371,0.287-1.403,1.275c-0.022,0.55,0.132,1.103,0.168,1.655
			c0.06,0.908,0.539,1.336,1.433,1.336c0.556-0.001,1.115,0.004,1.668,0.002c8.044-0.039,16.085-0.079,24.13-0.115
			c0.554-0.002,1.111,0.003,1.669,0.032c0.556,0.03,0.927,0.286,0.987,0.891c0.08,0.798,0.205,1.593,0.252,2.393
			c0.063,1.14-0.254,1.458-1.355,1.456c-8.598-0.018-17.196-0.045-25.792-0.048c-2.845-0.001-5.689,0.058-8.533,0.081
			C100.311,35.304,100.075,35.229,99.651,35.157z"/>
		<path d="M187.395,60.011c0.16,1.212,0.344,2.244,0.414,3.28c0.07,1-0.336,1.365-1.297,1.352
			c-4.814-0.062-9.637-0.142-14.455-0.166c-5.627-0.033-11.254-0.02-16.883-0.004c-1.22,0.004-2.445,0.108-3.895,0.174
			c-0.066-0.771-0.178-1.475-0.178-2.174c-0.006-5.875,0.006-11.746,0.016-17.619c0-0.31-0.032-0.621-0.01-0.928
			c0.102-1.1,0.401-1.408,1.475-1.502c0.368-0.031,0.742-0.01,1.113-0.01c10.389,0.02,20.779,0.037,31.169,0.061
			c2.647,0.006,2.702,0.065,2.747,2.678c0.033,1.837-0.24,2.084-2.164,2.063c-8.285-0.083-16.569-0.159-24.856-0.239
			c-0.062,0-0.122,0-0.188,0c-2.598,0.01-3.625,1.527-2.717,3.979c0.244,0.656,0.735,0.779,1.32,0.762
			c1.053-0.027,2.102-0.105,3.15-0.119c7.607-0.092,15.214-0.174,22.816-0.256c0.371-0.004,0.748-0.01,1.113,0.044
			c1.176,0.179,1.516,0.542,1.462,1.707c-0.038,0.847-0.204,1.692-0.342,2.74c-0.728,0-1.33,0-1.931,0
			c-7.854,0.006-15.709,0.019-23.562,0.015c-0.925-0.002-1.85-0.121-2.78-0.146c-1.101-0.033-1.414,0.288-1.457,1.41
			c-0.006,0.187,0.018,0.373,0.031,0.559c0.159,2.085,0.356,2.276,2.469,2.271c8.347-0.021,16.699-0.056,25.045-0.07
			C185.805,59.872,186.585,59.961,187.395,60.011z"/>
		<path d="M143.928,55.741c-0.693,0.032-1.299,0.091-1.9,0.092c-7.856,0.011-15.713,0.021-23.569,0.015
			c-0.925-0.002-1.85-0.121-2.774-0.146c-1.053-0.028-1.328,0.229-1.394,1.261c-0.018,0.309,0.021,0.615,0.041,0.924
			c0.138,1.93,0.257,2.057,2.246,2.055c8.29-0.02,16.575-0.049,24.868-0.073c0.554-0.002,1.113,0.012,1.668,0.008
			c0.832-0.008,1.246,0.372,1.266,1.229c0.014,0.739,0.135,1.479,0.143,2.22c0.008,1.055-0.309,1.321-1.313,1.315
			c-5.747-0.057-11.494-0.104-17.243-0.137c-3.957-0.021-7.917-0.011-11.876-0.012c-1.908,0-3.815,0-5.917,0
			c-0.57-0.461-0.367-1.287-0.363-2.077c0.022-5.87,0.073-11.739,0.028-17.606c-0.017-1.959,0.261-2.39,2.285-2.387
			c10.638,0.014,21.28,0.033,31.919,0.064c0.775,0.003,1.872-0.235,2.098,0.707c0.26,1.094,0.176,2.312-0.006,3.436
			c-0.046,0.278-1.021,0.561-1.578,0.577c-1.729,0.049-3.463-0.039-5.195-0.054c-6.494-0.063-12.988-0.113-19.482-0.168
			c-0.497-0.004-0.99-0.023-1.485,0.004c-1.666,0.087-2.022,0.468-2.06,2.158c-0.006,0.248,0.006,0.496,0.015,0.742
			c0.071,1.699,0.247,1.854,2.005,1.83c8.412-0.125,16.821-0.248,25.233-0.369c0.431-0.006,0.872-0.02,1.294,0.047
			c1.209,0.188,1.592,0.67,1.461,1.899C144.253,54.077,144.082,54.854,143.928,55.741z"/>
		<path d="M65.827,48.615c0,5.32,0,10.404,0,15.668c-0.158,0.063-0.475,0.302-0.799,0.313c-1.603,0.063-3.208,0.061-4.814,0.078
			c-0.757,0.01-1.167-0.387-1.176-1.122c-0.016-0.989,0.047-1.978,0.047-2.967c0-4.884-0.01-9.769-0.016-14.651
			c-0.001-0.432-0.006-0.865,0.001-1.298c0.038-2.19,0.19-2.329,2.329-2.235c0.865,0.037,1.74,0.132,2.593,0.041
			c1.444-0.156,2.654,0.322,3.841,1.061c8.083,5.025,16.178,10.027,24.261,15.05c1.036,0.642,2.03,1.353,3.254,2.171
			c0-6.162,0-12.096,0-18.027c0.208-0.116,0.361-0.274,0.517-0.278c1.668-0.035,3.334-0.037,5.001-0.067
			c0.844-0.016,1.304,0.326,1.195,1.215c-0.699,5.613-0.022,11.233-0.088,16.852c-0.014,1.29-0.002,2.579-0.002,4.111
			c-0.602,0.043-1.244,0.133-1.887,0.133c-1.85,0.002-3.704-0.092-5.553-0.028c-1.415,0.052-2.678-0.267-3.88-0.989
			c-7.577-4.547-15.164-9.082-22.741-13.627C67.246,49.616,66.623,49.152,65.827,48.615z"/>
		<path d="M226.395,35.246c-2.201,0-4.332,0-6.61,0c-0.438-2.667,0.81-5.311-0.068-8.139c-0.601,0-1.196,0-1.79,0
			c-8.291,0.01-16.578,0.019-24.865,0.036c-0.973,0.002-2.164-0.275-2.855,0.181c-0.967,0.631,0.072,1.81-0.006,2.767
			c-0.071,0.859-0.018,1.729-0.012,2.594c0,0.787,0,1.572,0,2.52c-2.217,0-4.385,0-6.543,0c-0.088-0.299-0.201-0.479-0.183-0.643
			c0.624-5.371,0.075-10.747,0.07-16.119c-0.003-1.719,0.132-3.44,0.21-5.368c0.843-0.027,1.498-0.055,2.148-0.066
			c1.051-0.016,2.101-0.024,3.15-0.029c1.284-0.005,1.459,0.244,1.376,1.545c-0.157,2.463-0.259,4.93-0.37,7.395
			c-0.006,0.166,0.112,0.34,0.213,0.624c0.254,0.042,0.545,0.15,0.832,0.134c8.84-0.487,17.674-0.224,26.512,0.03
			c0.246,0.007,0.494,0.046,0.74,0.046c1.332,0.005,1.573-0.168,1.541-1.455c-0.048-2.161-0.141-4.324-0.293-6.479
			c-0.121-1.625,0.035-1.819,1.665-1.783c1.652,0.037,3.306,0.007,5.138,0.007C226.395,20.463,226.395,27.728,226.395,35.246z"/>
		<path d="M201.27,54.957c0,2.475-0.004,4.876,0,7.277c0.004,0.431,0.082,0.865,0.078,1.296c-0.014,0.729-0.32,1.122-1.142,1.105
			c-1.771-0.04-3.549-0.014-5.507-0.014c-0.477-1.827-0.094-3.667-0.139-5.476c-0.045-1.854,0.025-3.711,0.022-5.567
			c-0.003-1.793-0.046-3.586-0.06-5.379c-0.01-1.843-0.002-3.687-0.002-5.688c2.277,0,4.39,0,6.638,0c0,2.399,0,4.764,0,7.213
			c0.239,0.018,0.489,0.103,0.694,0.041c5.266-1.584,10.528-3.178,15.787-4.779c1.832-0.557,3.631-1.256,5.496-1.672
			c1.977-0.442,4.004-0.793,6.022-0.885c3.196-0.145,6.401-0.037,9.644,0.239c-8.035,2.574-16.074,5.149-24.389,7.813
			c4.309,2.396,8.387,4.625,12.428,6.922c4.047,2.295,8.055,4.658,12.333,7.139c-0.687,0.057-1.146,0.128-1.604,0.128
			c-1.916,0.002-3.836-0.075-5.754-0.006c-2.117,0.073-4.019-0.51-5.811-1.59c-5.244-3.153-10.533-6.241-15.73-9.474
			c-1.493-0.931-2.784-1.007-4.342-0.312C204.479,53.941,202.93,54.376,201.27,54.957z"/>
		<path d="M178.593,19.964c-0.804-0.327-1.307-0.418-1.667-0.695c-2.025-1.565-4.418-2.188-6.854-2.658
			c-4.924-0.95-9.83-0.941-14.686,0.486c-2.354,0.693-4.455,1.825-6.102,3.698c-1.936,2.203-1.939,4.413-0.012,6.654
			c1.194,1.39,2.646,2.439,4.367,3.041c7.086,2.478,14.164,2.598,21.2-0.212c0.627-0.251,1.205-0.62,1.804-0.948
			c0.527-0.292,1.043-0.603,1.789-1.035c0.32,1.722,0.17,3.23-0.031,4.726c-0.104,0.8-0.793,1.048-1.478,1.206
			c-2.468,0.57-4.911,1.406-7.409,1.633c-6.068,0.553-12.127,0.369-17.961-1.678c-1.8-0.631-3.593-1.391-5.203-2.388
			c-1.34-0.827-2.588-1.95-3.56-3.188c-2.358-2.999-2.213-6.202,0.21-9.158c1.514-1.851,3.406-3.208,5.563-4.229
			c3.865-1.826,7.983-2.563,12.201-2.886c5.426-0.414,10.74,0.198,15.963,1.692c1.762,0.504,1.799,0.542,1.856,2.437
			C178.62,17.5,178.593,18.542,178.593,19.964z"/>
		<path d="M72.47,17.827c-0.939-0.049-1.667-0.123-2.393-0.118c-3.09,0.022-6.179,0.07-9.27,0.102c-0.493,0.006-0.99,0-1.479-0.05
			c-0.716-0.074-1.113-0.479-1.114-1.223c-0.001-1.042,0-2.087,0-3.039c1.543-0.518,33.673-0.578,35.896-0.151
			c0.403,1.355,0.428,2.412,0.062,4.337c-0.604,0.033-1.26,0.106-1.914,0.099c-3.214-0.03-6.426-0.083-9.641-0.127
			c-0.309-0.004-0.618-0.021-0.926-0.021c-2.561-0.002-2.729,0.168-2.707,2.729c0.037,4.14,0.077,8.281,0.114,12.42
			c0.007,0.67,0.002,1.339,0.002,2.085c-1.845,0.443-3.568,0.464-5.281,0.291c-1.193-0.121-1.474-0.524-1.449-1.914
			c0.074-4.201,0.204-8.401,0.279-12.602C72.664,19.747,72.539,18.846,72.47,17.827z"/>
	</g>
	<g>
		<path d="M22.918,35.774c0-2.386,0-4.733,0-7.099c-0.142-0.024-0.276-0.046-0.41-0.07c-0.794-0.147-1.374-0.804-1.383-1.608
			c-0.013-1.162-0.014-2.325,0-3.487c0.011-0.884,0.71-1.585,1.589-1.632c0.116-0.006,0.232-0.004,0.349-0.004
			c4.243,0,8.485,0.023,12.728-0.015c1.217-0.011,2.023,0.818,1.959,1.958c-0.055,0.986-0.041,1.977-0.003,2.963
			c0.039,1.02-0.676,1.792-1.593,1.859c-0.055,0.004-0.109,0.019-0.179,0.032c0,2.381,0,4.748,0,7.121
			c4.827,1.923,8.394,5.187,10.539,9.924c1.768,3.904,2.108,7.972,1.095,12.127c-2.021,8.302-9.492,14.193-18.028,14.265
			c-8.546,0.068-16.149-5.717-18.275-13.949c-1.203-4.657-0.727-9.161,1.499-13.434C15.023,40.465,18.445,37.522,22.918,35.774z
			 M18.069,56.668c-0.164,0.036-0.323,0.066-0.48,0.105c-0.511,0.123-1.002,0.297-1.445,0.588c-0.547,0.361-0.914,0.854-1.063,1.496
			c-0.03,0.131-0.059,0.302,0,0.403c0.219,0.384,0.296,0.806,0.401,1.22c0.133,0.528,0.408,0.968,0.855,1.277
			c0.647,0.449,1.334,0.805,2.162,0.74c0.092-0.008,0.186-0.002,0.278,0c0.302,0.007,0.484,0.146,0.521,0.441
			c0.019,0.146-0.009,0.299-0.035,0.445c-0.065,0.365-0.167,0.725-0.208,1.092c-0.101,0.889,0.139,1.668,0.854,2.24
			c0.267,0.215,0.585,0.377,0.901,0.514c0.461,0.203,0.958,0.287,1.461,0.295c0.198,0.002,0.305,0.078,0.403,0.255
			c0.564,0.997,1.432,1.577,2.56,1.729c1.453,0.196,2.711-0.529,3.235-1.82c0.06-0.147,0.099-0.313,0.099-0.471
			c0.006-2.533,0.011-5.068,0.001-7.604c-0.003-0.731-0.171-1.428-0.538-2.069c-0.446-0.776-1.089-1.297-1.977-1.471
			c-1.368-0.267-2.875,0.375-3.646,1.536c-0.069,0.104-0.124,0.216-0.195,0.343c0.103,0.057,0.181,0.103,0.259,0.146
			c0.091,0.049,0.186,0.096,0.274,0.151c1.037,0.649,1.627,1.569,1.672,2.808c0.004,0.116-0.031,0.262-0.104,0.344
			c-0.142,0.16-0.349,0.229-0.567,0.217c-0.374-0.02-0.566-0.229-0.608-0.604c-0.022-0.207-0.071-0.414-0.137-0.608
			c-0.162-0.488-0.727-1.052-1.413-0.988c-0.138,0.013-0.279,0.008-0.418-0.007c-0.259-0.026-0.478,0.064-0.685,0.206
			c-0.276,0.188-0.488,0.438-0.605,0.749c-0.095,0.249-0.17,0.507-0.209,0.769c-0.028,0.188-0.116,0.294-0.266,0.376
			c-0.243,0.133-0.487,0.135-0.734,0.01c-0.171-0.088-0.273-0.211-0.248-0.418c0.03-0.24,0.032-0.488,0.084-0.726
			c0.249-1.12,0.957-1.832,2.02-2.204c0.194-0.068,0.309-0.162,0.38-0.355c0.171-0.474,0.428-0.901,0.743-1.295
			c1.655-2.078,4.67-2.482,6.699-0.625c0.057,0.052,0.119,0.097,0.216,0.172c0-3.161,0-6.275,0-9.424
			c-0.356,0.16-0.678,0.314-1.007,0.451c-0.975,0.408-1.979,0.676-3.048,0.611c-1.046-0.064-1.923-0.488-2.656-1.229
			c-0.118-0.119-0.161-0.239-0.127-0.407c0.106-0.517,0.623-0.735,1.055-0.435c0.671,0.469,1.409,0.776,2.233,0.801
			c1.613,0.047,2.768-0.722,3.566-2.08c0.061-0.104,0.087-0.241,0.09-0.363c0.023-1.15,0.041-2.301,0.053-3.452
			c0.001-0.124-0.019-0.256-0.062-0.373c-0.22-0.597-0.549-1.128-1.004-1.573c-0.132-0.13-0.276-0.25-0.429-0.355
			c-0.741-0.51-1.523-0.577-2.347-0.209c-0.672,0.3-1.159,0.806-1.556,1.406c-0.115,0.172-0.25,0.271-0.451,0.266
			c-0.254-0.006-0.513,0.006-0.762-0.036c-1.011-0.173-1.878,0.12-2.566,0.853c-1.032,1.099-1.435,2.396-1.044,3.886
			c0.104,0.396,0.018,0.719-0.287,0.969c-0.187,0.151-0.402,0.276-0.62,0.381c-0.304,0.146-0.621,0.263-0.934,0.386
			c-0.602,0.236-0.972,0.685-1.097,1.301c-0.073,0.359-0.096,0.746-0.046,1.105c0.062,0.444,0.204,0.879,0.345,1.309
			c0.136,0.416,0.097,0.651-0.246,0.916c-0.156,0.121-0.329,0.221-0.499,0.319c-0.211,0.122-0.427,0.236-0.642,0.351
			c-0.598,0.32-0.916,0.814-1.024,1.488c-0.14,0.867,0.01,1.635,0.619,2.297c0.172,0.186,0.322,0.397,0.456,0.613
			c0.146,0.24,0.238,0.502,0.129,0.824c0.073-0.05,0.122-0.077,0.163-0.111c0.616-0.521,1.301-0.896,2.117-0.982
			c0.156-0.016,0.214-0.11,0.268-0.233c0.189-0.444,0.46-0.834,0.813-1.164c0.966-0.901,2.118-1.262,3.424-1.164
			c0.365,0.027,0.648,0.306,0.708,0.665c0.07,0.42-0.204,0.756-0.625,0.762c-0.349,0.006-0.699,0.03-1.046,0.006
			c-0.474-0.033-0.861,0.147-1.222,0.418c-0.36,0.271-0.641,0.609-0.841,1.01C18.29,56.119,18.192,56.381,18.069,56.668z
			 M44.26,50.311c-0.302,0.229-0.547,0.44-0.816,0.613c-0.436,0.277-0.926,0.432-1.428,0.539c-0.162,0.036-0.263,0.1-0.337,0.255
			c-0.886,1.872-2.708,2.438-4.396,2.277c-0.132-0.013-0.219-0.063-0.27-0.181c-0.046-0.106-0.1-0.211-0.129-0.322
			c-0.075-0.288,0.011-0.473,0.282-0.594c0.115-0.051,0.242-0.09,0.367-0.103c0.3-0.03,0.603-0.065,0.903-0.057
			c0.37,0.01,0.69-0.099,0.967-0.327c0.223-0.184,0.434-0.387,0.633-0.596c0.268-0.282,0.43-0.631,0.573-0.988
			c0.144-0.363,0.387-0.581,0.803-0.619c0.443-0.041,0.857-0.204,1.233-0.451c0.537-0.353,0.859-0.847,0.921-1.486
			c0.022-0.24-0.001-0.489-0.045-0.727c-0.131-0.716-0.457-1.339-0.958-1.865c-0.58-0.605-1.283-0.939-2.133-0.969
			c-0.238-0.008-0.484-0.064-0.708-0.15c-0.262-0.102-0.329-0.295-0.258-0.567c0.017-0.067,0.049-0.13,0.069-0.196
			c0.465-1.568-0.025-2.98-1.569-3.74c-0.484-0.238-1-0.39-1.535-0.432c-0.263-0.021-0.406-0.121-0.55-0.335
			c-0.784-1.172-2.12-1.691-3.43-1.358c-1.362,0.346-2.299,1.55-2.299,2.957c0.002,2.604,0.009,5.209,0.005,7.813
			c-0.002,1.058,0.485,1.809,1.428,2.235c1.138,0.517,2.283,0.461,3.391-0.123c0.507-0.269,0.887-0.672,1.113-1.207
			c0.048-0.114,0.08-0.236,0.124-0.366c-0.121-0.056-0.214-0.099-0.306-0.144c-0.807-0.408-1.423-1-1.762-1.851
			c-0.145-0.361-0.217-0.739-0.118-1.125c0.025-0.101,0.103-0.222,0.189-0.265c0.272-0.129,0.561-0.146,0.84-0.004
			c0.151,0.076,0.247,0.174,0.255,0.373c0.019,0.469,0.2,0.879,0.534,1.217c0.266,0.268,0.569,0.435,0.966,0.373
			c0.161-0.025,0.325-0.024,0.486-0.045c0.807-0.101,1.226-0.502,1.36-1.303c0.018-0.103,0.016-0.21,0.044-0.31
			c0.02-0.071,0.061-0.155,0.119-0.195c0.214-0.147,0.452-0.239,0.719-0.224c0.216,0.014,0.313,0.088,0.374,0.3
			c0.028,0.099,0.043,0.205,0.044,0.31c0.012,0.894-0.297,1.647-1.032,2.176c-0.325,0.233-0.701,0.404-1.068,0.574
			c-0.179,0.082-0.297,0.154-0.355,0.367c-0.318,1.168-1.044,2.002-2.136,2.521c-0.704,0.332-1.452,0.479-2.223,0.531
			c-0.653,0.045-1.271-0.045-1.846-0.387c-0.248-0.146-0.525-0.246-0.792-0.359c-0.058-0.024-0.13-0.018-0.233-0.029
			c-0.019,0.164-0.048,0.309-0.051,0.456c-0.006,0.349,0.002,0.698,0.001,1.046c-0.006,1.824-0.012,3.65-0.016,5.477
			c0,0.133,0.018,0.267,0.03,0.435c0.204-0.021,0.369-0.019,0.522-0.06c0.246-0.065,0.484-0.16,0.726-0.242
			c1.158-0.395,2.271-0.328,3.285,0.395c0.354,0.252,0.673,0.574,0.953,0.909c0.499,0.599,0.787,1.312,0.957,2.069
			c0.032,0.143,0.085,0.252,0.202,0.349c0.831,0.694,1.104,1.596,0.993,2.651c-0.032,0.311-0.38,0.641-0.665,0.584
			c-0.183-0.035-0.357-0.152-0.517-0.261c-0.154-0.103-0.063-0.278-0.073-0.422c-0.026-0.356-0.024-0.72-0.09-1.069
			c-0.059-0.312-0.272-0.564-0.59-0.629c-0.575-0.115-1.144-0.119-1.553,0.418c-0.162,0.213-0.309,0.436-0.478,0.643
			c-0.213,0.262-0.534,0.275-0.747,0.015c-0.096-0.118-0.161-0.287-0.178-0.438c-0.052-0.483,0.151-0.885,0.472-1.229
			c0.392-0.419,0.888-0.666,1.427-0.838c0.117-0.038,0.234-0.077,0.354-0.116c-0.022-0.511-0.224-0.908-0.554-1.236
			c-0.679-0.674-1.517-0.967-2.451-0.821c-0.684,0.104-1.347,0.337-2.044,0.521c0,0.148,0,0.286,0,0.426
			c0,2.057,0.028,4.115-0.018,6.17c-0.014,0.633,0.193,1.099,0.594,1.527c0.135,0.145,0.271,0.288,0.42,0.418
			c0.328,0.286,0.701,0.491,1.131,0.592c0.648,0.148,1.246-0.004,1.817-0.297c0.641-0.326,1.176-0.789,1.64-1.332
			c0.117-0.139,0.238-0.191,0.417-0.19c0.383,0.003,0.776,0.032,1.146-0.043c1.661-0.336,2.736-1.351,3.278-2.942
			c0.188-0.552,0.235-1.111,0.038-1.676c-0.049-0.141-0.079-0.292-0.1-0.439c-0.082-0.551,0.172-0.901,0.714-0.998
			c0.114-0.02,0.231-0.037,0.346-0.035c0.618,0.012,1.075-0.284,1.395-0.78c0.199-0.312,0.365-0.649,0.495-0.995
			c0.296-0.788,0.247-1.547-0.273-2.244c-0.173-0.23-0.169-0.478-0.041-0.722c0.125-0.233,0.309-0.416,0.573-0.478
			c0.395-0.092,0.703-0.317,0.934-0.629c0.214-0.287,0.403-0.598,0.568-0.916c0.452-0.871,0.314-1.712-0.192-2.509
			c-0.154-0.243-0.349-0.468-0.561-0.664c-0.2-0.184-0.276-0.381-0.255-0.643C44.272,50.744,44.26,50.539,44.26,50.311z"/>
		<path d="M26.972,15.294c0.031-1.432,0.633-2.574,1.783-3.417c1.738-1.275,4.189-1.145,5.798,0.288
			c1.833,1.633,1.903,4.38,0.157,6.104c-2.2,2.171-6,1.554-7.328-1.19C27.105,16.508,26.976,15.942,26.972,15.294z"/>
		<path d="M31.701,7.297c-0.044,1.367-1.123,2.56-2.501,2.737c-0.714,0.092-1.389-0.018-2.012-0.391
			c-1.852-1.107-1.827-3.687,0.044-4.761c1.623-0.931,3.738-0.165,4.297,1.566C31.619,6.722,31.646,7.014,31.701,7.297z"/>
		<path d="M24.768,14.074c-0.632-0.03-1.123-0.234-1.493-0.683c-0.596-0.724-0.494-1.754,0.23-2.369
			c0.745-0.632,1.885-0.575,2.561,0.129c0.919,0.96,0.438,2.532-0.876,2.852C25.033,14.042,24.871,14.058,24.768,14.074z"/>
	</g>
</g>
</svg>
